# xmcd CD database file
#
# Track frame offsets:
#	150
#	18774
#	32402
#	50624
#	67550
#	85523
#	97367
#	116350
#	134538
#	147867
#	160994
#	177245
#	192156
#
# Disc length: 2838 seconds
#
# Revision: 0
# Processed by: cddbd v1.5.2PL0 Copyright (c) Steve Scherf et al.
# Submitted via: CDex 2.02
#
DISCID=a20b140d
DTITLE=Die Drei Damen - Venus In The Backyard
DYEAR=2018
DGENRE=Jazz
TTITLE0=Count On Me
TTITLE1=Wanderer
TTITLE2=Love Yourself
TTITLE3=Time After Time
TTITLE4=Venus In The Backyard
TTITLE5=Old Country
TTITLE6=Dat Dere
TTITLE7=Embrace
TTITLE8=Pricetag
TTITLE9=For The Longest Time
TTITLE10=One For My Baby
TTITLE11=Here Comes The Sun
TTITLE12=Calling You
EXTD=YEAR: 2018
EXTT0=
EXTT1=
EXTT2=
EXTT3=
EXTT4=
EXTT5=
EXTT6=
EXTT7=
EXTT8=
EXTT9=
EXTT10=
EXTT11=
EXTT12=
PLAYORDER=
